<?xml version="1.0" encoding="UTF-8" standalone="no"?>
<!-- Created with Inkscape (http://www.inkscape.org/) -->

<svg
   width="97.25766"
   height="61.099216"
   viewBox="0 0 97.25766 61.099216"
   version="1.1"
   id="svg1"
   xml:space="preserve"
   sodipodi:docname="jj_logo.svg"
   xmlns:inkscape="http://www.inkscape.org/namespaces/inkscape"
   xmlns:sodipodi="http://sodipodi.sourceforge.net/DTD/sodipodi-0.dtd"
   xmlns="http://www.w3.org/2000/svg"
   xmlns:svg="http://www.w3.org/2000/svg"><sodipodi:namedview
     id="namedview1"
     pagecolor="#ffffff"
     bordercolor="#000000"
     borderopacity="0.25"
     inkscape:showpageshadow="2"
     inkscape:pageopacity="0.0"
     inkscape:pagecheckerboard="0"
     inkscape:deskcolor="#d1d1d1" /><defs
     id="defs1" /><g
     id="layer1"
     transform="translate(-13.763072,-36.304714)"><g
       id="g3"
       transform="translate(1.14741,8.2231078)"><path
         style="fill:#e9e9e9"
         d="m 23.623031,89.144497 c 0.099,-0.01907 0.261,-0.01907 0.36,0 0.099,0.01907 0.018,0.03467 -0.18,0.03467 -0.198,0 -0.279,-0.0156 -0.18,-0.03467 z m 21.28,-0.0035 c 1.595,-0.01211 4.205,-0.01211 5.8,0 1.595,0.01212 0.29,0.02203 -2.9,0.02203 -3.19,0 -4.495,-0.0099 -2.9,-0.02203 z m 29.600932,0.0034 c 0.09951,-0.01913 0.243513,-0.01841 0.32,0.0016 0.07649,0.02002 -0.0049,0.03568 -0.180932,0.03479 -0.176,-8.88e-4 -0.238581,-0.01727 -0.139068,-0.03641 z m 21.164963,-0.0034 c 1.620243,-0.0121 4.248243,-0.0121 5.840004,1.3e-5 1.59175,0.01211 0.2661,0.02201 -2.945899,0.02201 -3.212,-7e-6 -4.514347,-0.0099 -2.894105,-0.02202 z m -6.873496,-1.720025 -0.152399,-0.18 0.18,0.152399 c 0.099,0.08382 0.18,0.164819 0.18,0.18 0,0.01518 -0.01242,0.0276 -0.0276,0.0276 -0.01518,0 -0.09618,-0.081 -0.18,-0.18 z m -51.002604,-0.28 c -0.09951,-0.126885 -0.09668,-0.129714 0.03021,-0.03021 0.077,0.06039 0.14,0.123388 0.14,0.14 0,0.01661 -0.01359,0.03021 -0.03021,0.03021 -0.01661,0 -0.07961,-0.063 -0.14,-0.14 z m 28.88,-1.28 c -0.09951,-0.126885 -0.09668,-0.129714 0.0302,-0.0302 0.077,0.06039 0.14,0.123388 0.14,0.14 0,0.01661 -0.01359,0.0302 -0.0302,0.0302 -0.01661,0 -0.07961,-0.063 -0.14,-0.14 z m 16.090205,-0.210205 c 0,-0.01661 0.063,-0.07961 0.14,-0.14 0.126884,-0.09951 0.129714,-0.09668 0.0302,0.0302 -0.06039,0.077 -0.123388,0.14 -0.14,0.14 -0.01661,0 -0.0302,-0.01359 -0.0302,-0.0302 z m -50.64,-0.24 c 0,-0.01661 0.063,-0.07961 0.14,-0.14 0.126884,-0.09951 0.129714,-0.09668 0.0302,0.0302 -0.06039,0.077 -0.123388,0.14 -0.14,0.14 -0.01661,0 -0.0302,-0.01359 -0.0302,-0.0302 z M 87.202529,58.600956 c 10e-7,-13.816 0.0092,-19.456085 0.0205,-12.533522 0.01127,6.922563 0.01127,18.226563 -10e-7,25.12 -0.01127,6.893437 -0.0205,1.229522 -0.0205,-12.586478 z m -1.386867,19.8 c 0,-0.11 0.01816,-0.155 0.04035,-0.1 0.02219,0.055 0.02219,0.145 0,0.2 -0.02219,0.055 -0.04035,0.01 -0.04035,-0.1 z m 0,-0.88 c 0,-0.11 0.01816,-0.155 0.04035,-0.1 0.02219,0.055 0.02219,0.145 0,0.2 -0.02219,0.055 -0.04035,0.01 -0.04035,-0.1 z M 34.929346,76.994289 c 0.0038,-0.09319 0.0228,-0.112152 0.04833,-0.04833 0.02311,0.05775 0.02027,0.12675 -0.0063,0.153333 -0.02658,0.02658 -0.04549,-0.02067 -0.04202,-0.105 z m -3.77652,-7.453333 c -0.09951,-0.126885 -0.09668,-0.129714 0.0302,-0.0302 0.077,0.06039 0.14,0.123388 0.14,0.14 0,0.01661 -0.01359,0.0302 -0.0302,0.0302 -0.01661,0 -0.07961,-0.063 -0.14,-0.14 z m -7.449795,-2.792983 c 0.055,-0.02219 0.145,-0.02219 0.2,0 0.055,0.02219 0.01,0.04035 -0.1,0.04035 -0.11,0 -0.155,-0.01816 -0.1,-0.04035 z m 50.885,-0.0017 c 0.05775,-0.02311 0.12675,-0.02027 0.153333,0.0063 0.02658,0.02658 -0.02067,0.04549 -0.105,0.04202 -0.0932,-0.0038 -0.112152,-0.0228 -0.04833,-0.04833 z m -36.505,-36.985351 c 0.07964,-0.088 0.162798,-0.16 0.184798,-0.16 0.022,0 -0.02516,0.072 -0.104798,0.16 -0.07964,0.088 -0.162798,0.16 -0.184798,0.16 -0.022,0 0.02516,-0.072 0.104798,-0.16 z"
         id="path9" /><path
         style="fill:#cfcfcf"
         d="m 57.483031,87.410751 c 0,-0.01661 0.063,-0.07961 0.14,-0.14 0.126884,-0.09951 0.129714,-0.09668 0.0302,0.0302 -0.06039,0.077 -0.123388,0.14 -0.14,0.14 -0.01661,0 -0.0302,-0.01359 -0.0302,-0.0302 z M 15.312826,85.300956 c -0.09951,-0.126885 -0.09668,-0.129714 0.03021,-0.0302 0.077,0.06039 0.14,0.123388 0.14,0.14 0,0.01661 -0.01359,0.0302 -0.03021,0.0302 -0.01661,0 -0.07961,-0.063 -0.14,-0.14 z m 43.7858,-1.5 c 0.0016,-0.132 0.01956,-0.176315 0.03984,-0.09848 0.02028,0.07784 0.01895,0.185838 -0.003,0.24 -0.02191,0.05416 -0.03851,-0.0095 -0.03688,-0.141522 z m -22.64,-0.08 c 0.0016,-0.132 0.01956,-0.176315 0.03984,-0.09848 0.02028,0.07784 0.01895,0.185838 -0.003,0.24 -0.02191,0.05416 -0.03851,-0.0095 -0.03688,-0.141522 z m -1.522964,-5.08 c 0,-0.11 0.01816,-0.155 0.04035,-0.1 0.02219,0.055 0.02219,0.145 0,0.2 -0.02219,0.055 -0.04035,0.01 -0.04035,-0.1 z m 50.887543,-0.68 c 8.88e-4,-0.176 0.01727,-0.23858 0.03641,-0.139067 0.01914,0.09951 0.01841,0.243513 -0.0016,0.32 -0.02002,0.07649 -0.03568,-0.0049 -0.03479,-0.180933 z m -50.887543,-0.68 c 0,-0.11 0.01816,-0.155 0.04035,-0.1 0.02219,0.055 0.02219,0.145 0,0.2 -0.02219,0.055 -0.04035,0.01 -0.04035,-0.1 z M 15.323031,70.610751 c 0,-0.01661 0.063,-0.07961 0.14,-0.14 0.126884,-0.09951 0.129714,-0.09668 0.0302,0.0302 -0.06039,0.077 -0.123388,0.14 -0.14,0.14 -0.01661,0 -0.0302,-0.01359 -0.0302,-0.03021 z m 16.629795,-0.269795 c -0.09951,-0.126885 -0.09668,-0.129714 0.0302,-0.03021 0.077,0.06039 0.14,0.123388 0.14,0.14 0,0.01661 -0.01359,0.03021 -0.0302,0.03021 -0.01661,0 -0.07961,-0.063 -0.14,-0.14 z m 4.508765,-36.82 c 0,-0.154 0.01646,-0.217 0.03659,-0.14 0.02012,0.077 0.02012,0.203 0,0.28 -0.02012,0.077 -0.03659,0.014 -0.03659,-0.14 z m 22.634071,-0.08 c 0,-0.11 0.01816,-0.155 0.04035,-0.1 0.02219,0.055 0.02219,0.145 0,0.2 -0.02219,0.055 -0.04035,0.01 -0.04035,-0.1 z m 49.177168,-3.58 c -0.0995,-0.126885 -0.0967,-0.129714 0.0302,-0.03021 0.077,0.06039 0.14,0.123388 0.14,0.14 0,0.01661 -0.0136,0.0302 -0.0302,0.0302 -0.0166,0 -0.0796,-0.063 -0.14,-0.14 z"
         id="path8" /><path
         style="fill:#a6a6a6"
         d="m 16.112826,86.100956 c -0.09951,-0.126885 -0.09668,-0.129714 0.03021,-0.0302 0.077,0.06039 0.14,0.123388 0.14,0.14 0,0.01661 -0.01359,0.0302 -0.03021,0.0302 -0.01661,0 -0.07961,-0.063 -0.14,-0.14 z m 15.610205,-0.290205 c 0,-0.01661 0.063,-0.07961 0.14,-0.14 0.126884,-0.09951 0.129714,-0.09668 0.0302,0.03021 -0.06039,0.077 -0.123388,0.14 -0.14,0.14 -0.01661,0 -0.0302,-0.01359 -0.0302,-0.03021 z M 15.552826,85.540956 c -0.09951,-0.126885 -0.09668,-0.129714 0.03021,-0.0302 0.077,0.06039 0.14,0.123388 0.14,0.14 0,0.01661 -0.01359,0.0302 -0.03021,0.0302 -0.01661,0 -0.07961,-0.063 -0.14,-0.14 z m 50.64,-0.24 c -0.09951,-0.126885 -0.09668,-0.129714 0.03021,-0.0302 0.077,0.06039 0.14,0.123388 0.14,0.14 0,0.01661 -0.01359,0.0302 -0.03021,0.0302 -0.01661,0 -0.07961,-0.063 -0.14,-0.14 z m -7.070298,-26.7 c -1e-6,-13.772 0.0092,-19.417915 0.0205,-12.546478 0.01128,6.871437 0.01128,18.139437 10e-7,25.04 -0.01127,6.900563 -0.0205,1.278478 -0.0205,-12.493522 z m -22.640003,0.04 c 0,-13.706 0.0092,-19.313 0.0205,-12.46 0.01128,6.853 0.01128,18.067 0,24.92 -0.01128,6.853 -0.0205,1.246 -0.0205,-12.46 z m -23.863899,20.04 c 0.0016,-0.132 0.01956,-0.176315 0.03984,-0.09848 0.02028,0.07784 0.01895,0.185838 -0.003,0.24 -0.02191,0.05416 -0.03851,-0.0095 -0.03688,-0.141522 z m 22.322965,-0.44 c 0,-0.154 0.01646,-0.217 0.03659,-0.14 0.02012,0.077 0.02012,0.203 0,0.28 -0.02012,0.077 -0.03659,0.014 -0.03659,-0.14 z m 0,-0.56 c 0,-0.154 0.01646,-0.217 0.03659,-0.14 0.02012,0.077 0.02012,0.203 0,0.28 -0.02012,0.077 -0.03659,0.014 -0.03659,-0.14 z m -22.322965,-0.44 c 0.0016,-0.132 0.01956,-0.176315 0.03984,-0.09848 0.02028,0.07784 0.01895,0.185838 -0.003,0.24 -0.02191,0.05416 -0.03851,-0.0095 -0.03688,-0.141522 z M 109.80935,33.314289 c 0.004,-0.0932 0.0228,-0.112152 0.0483,-0.04833 0.0231,0.05775 0.0203,0.12675 -0.006,0.153333 -0.0266,0.02658 -0.0455,-0.02067 -0.042,-0.105 z"
         id="path7" /><path
         style="fill:#6f6f6f"
         d="m 15.83543,85.820956 -0.152399,-0.18 0.18,0.152399 c 0.099,0.08382 0.18,0.164819 0.18,0.18 0,0.01518 -0.01242,0.0276 -0.0276,0.0276 -0.01518,0 -0.09618,-0.081 -0.18,-0.18 z m 93.98023,-2.06 c 0,-0.11 0.0182,-0.155 0.0404,-0.1 0.0222,0.055 0.0222,0.145 0,0.2 -0.0222,0.055 -0.0404,0.01 -0.0404,-0.1 z m -46.319998,-4.88 c 0,-0.11 0.01816,-0.155 0.04035,-0.1 0.02219,0.055 0.02219,0.145 0,0.2 -0.02219,0.055 -0.04035,0.01 -0.04035,-0.1 z m -50.88,-0.56 c 0,-0.11 0.01816,-0.155 0.04035,-0.1 0.02219,0.055 0.02219,0.145 0,0.2 -0.02219,0.055 -0.04035,0.01 -0.04035,-0.1 z m 0,-0.72 c 0,-0.11 0.01816,-0.155 0.04035,-0.1 0.02219,0.055 0.02219,0.145 0,0.2 -0.02219,0.055 -0.04035,0.01 -0.04035,-0.1 z m 50.88,-0.56 c 0,-0.11 0.01816,-0.155 0.04035,-0.1 0.02219,0.055 0.02219,0.145 0,0.2 -0.02219,0.055 -0.04035,0.01 -0.04035,-0.1 z m -47.612631,-7 c 0.103339,-0.11 0.20589,-0.2 0.22789,-0.2 0.022,0 -0.04455,0.09 -0.14789,0.2 -0.10334,0.11 -0.205891,0.2 -0.227891,0.2 -0.022,0 0.04455,-0.09 0.147891,-0.2 z m 6.865,-3.214649 c 0.05775,-0.02311 0.12675,-0.02027 0.153333,0.0063 0.02658,0.02658 -0.02067,0.04549 -0.105,0.04202 -0.0932,-0.0038 -0.112152,-0.0228 -0.04833,-0.04833 z m 2,0 c 0.05775,-0.02311 0.12675,-0.02027 0.153333,0.0063 0.02658,0.02658 -0.02067,0.04549 -0.105,0.04202 -0.0932,-0.0038 -0.112152,-0.0228 -0.04833,-0.04833 z m 50.88,0 c 0.05775,-0.02311 0.12675,-0.02027 0.153333,0.0063 0.02658,0.02658 -0.02067,0.04549 -0.105,0.04202 -0.0932,-0.0038 -0.112152,-0.0228 -0.04833,-0.04833 z M 109.80935,33.554289 c 0.004,-0.09319 0.0228,-0.112152 0.0483,-0.04833 0.0231,0.05775 0.0203,0.12675 -0.006,0.153333 -0.0266,0.02658 -0.0455,-0.02067 -0.042,-0.105 z"
         id="path6" /><path
         style="fill:#474747"
         d="m 109.84253,58.640956 c 0,-13.75 0.009,-19.375 0.0205,-12.5 0.0113,6.875 0.0113,18.125 0,25 -0.0113,6.875 -0.0205,1.25 -0.0205,-12.5 z M 63.489346,78.594289 c 0.0038,-0.0932 0.0228,-0.112152 0.04833,-0.04833 0.02311,0.05775 0.02027,0.12675 -0.0063,0.153333 -0.02658,0.02658 -0.04549,-0.02067 -0.04202,-0.105 z m -50.87072,-0.633333 c 0.0016,-0.132 0.01956,-0.176315 0.03984,-0.09848 0.02028,0.07784 0.01895,0.185838 -0.003,0.24 -0.02191,0.05416 -0.03851,-0.0095 -0.03688,-0.141522 z m 50.87072,-0.646667 c 0.0038,-0.0932 0.0228,-0.112152 0.04833,-0.04833 0.02311,0.05775 0.02027,0.12675 -0.0063,0.153333 -0.02658,0.02658 -0.04549,-0.02067 -0.04202,-0.105 z M 73.788031,66.826307 c 0.05775,-0.02311 0.12675,-0.02027 0.153333,0.0063 0.02658,0.02658 -0.02067,0.04549 -0.105,0.04202 -0.0932,-0.0038 -0.112152,-0.0228 -0.04833,-0.04833 z m 14.975,-36.935556 c 0,-0.01661 0.063,-0.07961 0.14,-0.14 0.126884,-0.09951 0.129714,-0.09668 0.0302,0.0302 -0.06039,0.077 -0.123388,0.14 -0.14,0.14 -0.01661,0 -0.0302,-0.01359 -0.0302,-0.0302 z"
         id="path5" /><path
         style="fill:#2f2f2f"
         d="m 88.836976,87.380956 -0.193945,-0.22 0.22,0.193945 c 0.121,0.10667 0.22,0.20567 0.22,0.22 0,0.01433 -0.01172,0.02605 -0.02605,0.02605 -0.01433,0 -0.113331,-0.099 -0.22,-0.22 z m -50.96415,-0.24 c -0.09951,-0.126885 -0.09668,-0.129714 0.0302,-0.03021 0.077,0.06039 0.14,0.123388 0.14,0.14 0,0.01661 -0.01359,0.03021 -0.03021,0.03021 -0.01661,0 -0.07961,-0.063 -0.14,-0.14 z m 19.690205,0.109795 c 0,-0.01661 0.063,-0.07961 0.14,-0.14 0.126884,-0.09951 0.129714,-0.09668 0.0302,0.03021 -0.06039,0.077 -0.123388,0.14 -0.14,0.14 -0.01661,0 -0.0302,-0.01359 -0.0302,-0.03021 z M 16.512826,86.420956 c -0.09951,-0.126885 -0.09668,-0.129714 0.0302,-0.03021 0.077,0.06039 0.14,0.123388 0.14,0.14 0,0.01661 -0.01359,0.03021 -0.0302,0.03021 -0.01661,0 -0.07961,-0.063 -0.14,-0.14 z m 65.610205,-0.210205 c 0,-0.01661 0.063,-0.07961 0.14,-0.14 0.126884,-0.09951 0.129714,-0.09668 0.0302,0.0302 -0.06039,0.077 -0.123388,0.14 -0.14,0.14 -0.01661,0 -0.0302,-0.01359 -0.0302,-0.0302 z m 0.64,-0.64 c 0,-0.01661 0.063,-0.07961 0.14,-0.14 0.126884,-0.09951 0.129714,-0.09668 0.0302,0.0302 -0.06039,0.077 -0.123388,0.14 -0.14,0.14 -0.01661,0 -0.0302,-0.01359 -0.0302,-0.0302 z m -50.64,-0.24 c 0,-0.01661 0.063,-0.07961 0.14,-0.14 0.126884,-0.09951 0.129714,-0.09668 0.0302,0.0302 -0.06039,0.077 -0.123388,0.14 -0.14,0.14 -0.01661,0 -0.0302,-0.01359 -0.0302,-0.0302 z m 31.366315,-6.976462 c 0.0038,-0.09319 0.0228,-0.112152 0.04833,-0.04833 0.02311,0.05775 0.02027,0.12675 -0.0063,0.153333 -0.02658,0.02658 -0.04549,-0.02067 -0.04202,-0.105 z m 0,-0.8 c 0.0038,-0.09319 0.0228,-0.112152 0.04833,-0.04833 0.02311,0.05775 0.02027,0.12675 -0.0063,0.153333 -0.02658,0.02658 -0.04549,-0.02067 -0.04202,-0.105 z M 15.163031,70.850751 c 0,-0.01661 0.063,-0.07961 0.14,-0.14 0.126884,-0.09951 0.129714,-0.09668 0.0302,0.0302 -0.06039,0.077 -0.123388,0.14 -0.14,0.14 -0.01661,0 -0.0302,-0.01359 -0.0302,-0.0302 z m 16.949795,-0.269795 c -0.09951,-0.126885 -0.09668,-0.129714 0.03021,-0.0302 0.077,0.06039 0.14,0.123388 0.14,0.14 0,0.01661 -0.01359,0.0302 -0.03021,0.0302 -0.01661,0 -0.07961,-0.063 -0.14,-0.14 z m 50.64,-0.24 c -0.09951,-0.126885 -0.09668,-0.129714 0.0302,-0.03021 0.077,0.06039 0.14,0.123388 0.14,0.14 0,0.01661 -0.01359,0.03021 -0.0302,0.03021 -0.01661,0 -0.07961,-0.063 -0.14,-0.14 z m -0.56,-0.56 c -0.09951,-0.126885 -0.09668,-0.129714 0.03021,-0.03021 0.077,0.06039 0.14,0.123388 0.14,0.14 0,0.01661 -0.01359,0.03021 -0.03021,0.03021 -0.01661,0 -0.07961,-0.063 -0.14,-0.14 z m -51.04,-0.16 c -0.09951,-0.126885 -0.09668,-0.129714 0.0302,-0.03021 0.077,0.06039 0.14,0.123388 0.14,0.14 0,0.01661 -0.01359,0.0302 -0.0302,0.0302 -0.01661,0 -0.07961,-0.063 -0.14,-0.14 z m -6.804795,-2.794649 c 0.05775,-0.02311 0.12675,-0.02027 0.153333,0.0063 0.02658,0.02658 -0.02067,0.04549 -0.105,0.04202 -0.0932,-0.0038 -0.112152,-0.0228 -0.04833,-0.04833 z m 50.88,0 c 0.05775,-0.02311 0.12675,-0.02027 0.153333,0.0063 0.02658,0.02658 -0.02067,0.04549 -0.105,0.04202 -0.0932,-0.0038 -0.112152,-0.0228 -0.04833,-0.04833 z m -17.831055,-37.045351 -0.193945,-0.22 0.22,0.193945 c 0.121,0.10667 0.22,0.20567 0.22,0.22 0,0.01433 -0.01172,0.02605 -0.02605,0.02605 -0.01433,0 -0.113331,-0.099 -0.22,-0.22 z m -19.233945,-0.02 c 0.07964,-0.088 0.162798,-0.16 0.184798,-0.16 0.022,0 -0.02516,0.072 -0.104798,0.16 -0.07964,0.088 -0.162798,0.16 -0.184798,0.16 -0.022,0 0.02516,-0.072 0.104798,-0.16 z m 3.62,-1.652983 c 0.055,-0.02219 0.145,-0.02219 0.2,0 0.055,0.02219 0.01,0.04035 -0.1,0.04035 -0.11,0 -0.155,-0.01816 -0.1,-0.04035 z m 11.925,-0.0017 c 0.05775,-0.02311 0.12675,-0.02027 0.153333,0.0063 0.02658,0.02658 -0.02067,0.04549 -0.105,0.04202 -0.0932,-0.0038 -0.112152,-0.0228 -0.04833,-0.04833 z m 38.795,0.0017 c 0.055,-0.02219 0.145,-0.02219 0.2,0 0.055,0.02219 0.01,0.04035 -0.1,0.04035 -0.11,0 -0.155,-0.01816 -0.1,-0.04035 z m 11.919999,0 c 0.055,-0.02219 0.145,-0.02219 0.2,0 0.055,0.02219 0.01,0.04035 -0.1,0.04035 -0.11,0 -0.155,-0.01816 -0.1,-0.04035 z"
         id="path4" /><path
         style="fill:#000000"
         d="m 22.243031,88.99068 c -0.396,-0.06165 -1.044003,-0.198315 -1.440006,-0.303692 -0.396004,-0.105376 -1.046616,-0.335321 -1.445806,-0.510987 -0.39919,-0.175667 -0.975187,-0.471897 -1.279994,-0.65829 -0.304807,-0.186393 -0.766448,-0.502062 -1.02587,-0.701486 -0.259422,-0.199424 -0.70513,-0.580974 -0.990462,-0.847888 -0.285333,-0.266915 -0.741859,-0.773768 -1.014503,-1.12634 -0.272644,-0.352573 -0.623927,-0.857041 -0.780629,-1.121041 -0.156702,-0.264 -0.392533,-0.696 -0.524068,-0.96 -0.131536,-0.264 -0.349326,-0.804 -0.483978,-1.2 -0.134652,-0.396 -0.310041,-1.026 -0.389753,-1.4 -0.110964,-0.520627 -0.144931,-1.036246 -0.144931,-2.2 0,-1.163754 0.03397,-1.679373 0.144931,-2.2 0.07971,-0.374 0.254641,-1.004 0.388731,-1.4 0.13409,-0.396 0.425525,-1.075509 0.647635,-1.510021 0.222109,-0.434511 0.619162,-1.082511 0.882339,-1.44 0.263178,-0.357488 0.806523,-0.974644 1.207434,-1.371456 0.400911,-0.396812 0.967775,-0.890666 1.259698,-1.097454 0.291922,-0.206788 0.903922,-0.573038 1.36,-0.81389 0.456077,-0.240852 1.082114,-0.528745 1.391192,-0.639762 0.309078,-0.111017 0.867078,-0.273622 1.24,-0.361346 0.372922,-0.08772 1.07404,-0.199288 1.55804,-0.247921 0.484,-0.04863 1.186,-0.06535 1.56,-0.03716 0.374,0.0282 1.004,0.104626 1.4,0.169846 0.396,0.06522 1.092825,0.242745 1.5485,0.394498 0.455675,0.151753 1.139675,0.436863 1.52,0.633577 0.380325,0.196714 0.897332,0.493434 1.148905,0.659376 0.251573,0.165943 0.714548,0.517714 1.028833,0.781714 0.314286,0.264 0.823258,0.768 1.131049,1.12 0.307791,0.352 0.768386,0.956115 1.023543,1.342479 0.255158,0.386363 0.609176,1.034363 0.786708,1.44 0.177531,0.405636 0.416091,1.060447 0.530134,1.455135 0.114042,0.394688 0.260075,1.042688 0.324517,1.44 0.06444,0.397312 0.117167,1.154386 0.117167,1.682386 0,0.528 -0.05273,1.285074 -0.117167,1.682386 -0.06444,0.397312 -0.210611,1.045312 -0.32482,1.44 -0.114208,0.394688 -0.343422,1.023614 -0.509363,1.397614 -0.165941,0.374 -0.503904,1.006688 -0.751028,1.405975 -0.247124,0.399286 -0.715068,1.029946 -1.039874,1.401468 -0.324807,0.371521 -0.929531,0.94918 -1.343831,1.283686 -0.4143,0.334505 -0.915273,0.709125 -1.113273,0.832487 -0.198,0.123363 -0.63867,0.362037 -0.979266,0.530387 -0.340596,0.16835 -0.808596,0.378844 -1.04,0.467765 -0.231404,0.08892 -0.692105,0.231718 -1.02378,0.317327 -0.331675,0.08561 -0.970438,0.210835 -1.419473,0.278279 -0.449036,0.06744 -1.149665,0.118536 -1.556955,0.113537 -0.407289,-0.005 -1.064526,-0.05953 -1.460526,-0.121188 z m 19.06107,0.04923 c -0.208411,-0.03596 -0.568411,-0.126869 -0.8,-0.202019 -0.231589,-0.07515 -0.655959,-0.258399 -0.943045,-0.407222 -0.287086,-0.148823 -0.726127,-0.44139 -0.975648,-0.650149 -0.24952,-0.20876 -0.615892,-0.579094 -0.81416,-0.822966 -0.198268,-0.243872 -0.484211,-0.693872 -0.63543,-1 -0.15122,-0.306128 -0.341959,-0.754597 -0.423866,-0.996597 -0.143817,-0.42492 -0.149673,-1.317397 -0.17086,-26.04 -0.01976,-23.055251 -0.0094,-25.663619 0.104342,-26.24 0.07651,-0.387773 0.270497,-0.938516 0.492214,-1.397454 0.313519,-0.648964 0.47045,-0.860969 1.095657,-1.480174 0.557971,-0.552613 0.870947,-0.791643 1.329726,-1.015554 0.33,-0.161059 0.771176,-0.349614 0.980391,-0.419011 0.209216,-0.0694 0.695216,-0.162247 1.08,-0.206335 0.400999,-0.04594 3.056569,-0.08044 6.221707,-0.08082 3.356956,-3.99e-4 5.782882,0.03204 6.187214,0.08274 0.365814,0.04587 0.832869,0.138861 1.037902,0.206647 0.205032,0.06779 0.642786,0.253856 0.972786,0.413488 0.466156,0.225494 0.761327,0.451545 1.323205,1.013352 0.552091,0.552023 0.80274,0.87714 1.059358,1.374098 0.184885,0.35804 0.408771,0.956741 0.497526,1.330446 0.160312,0.675 0.161236,0.84808 0.140641,26.349017 -0.01999,24.7494 -0.02604,25.685326 -0.168978,26.109554 -0.08153,0.242 -0.272771,0.696202 -0.424968,1.009338 -0.152197,0.313136 -0.453744,0.778702 -0.670105,1.03459 -0.216362,0.255887 -0.583126,0.620929 -0.815032,0.811203 -0.231906,0.190274 -0.655647,0.468157 -0.941647,0.617518 -0.286,0.14936 -0.772,0.355759 -1.08,0.458663 l -0.56,0.187099 -6.36,0.01296 c -3.498,0.0071 -6.530519,-0.01646 -6.73893,-0.05242 z m 31.838272,-0.04123 c -0.385362,-0.06306 -0.997362,-0.19039 -1.36,-0.282955 -0.362639,-0.09257 -0.929407,-0.272427 -1.259486,-0.399693 -0.330079,-0.127266 -0.924079,-0.417092 -1.32,-0.644059 -0.395921,-0.226966 -0.935856,-0.576893 -1.199856,-0.777615 -0.264,-0.200721 -0.763191,-0.636851 -1.109313,-0.969176 -0.346121,-0.332325 -0.833554,-0.874227 -1.083184,-1.204227 -0.24963,-0.33 -0.583916,-0.821665 -0.742858,-1.09259 -0.158942,-0.270924 -0.414458,-0.774924 -0.567814,-1.12 -0.153356,-0.345075 -0.351636,-0.84341 -0.440624,-1.10741 -0.08899,-0.264 -0.221448,-0.768 -0.294356,-1.12 -0.07291,-0.352 -0.163351,-1.018 -0.200983,-1.48 -0.03783,-0.464397 -0.0379,-1.215604 -1.63e-4,-1.68 0.03754,-0.462 0.127951,-1.128 0.200908,-1.48 0.07296,-0.352 0.233833,-0.928 0.357501,-1.28 0.123668,-0.352 0.321675,-0.856 0.440015,-1.12 0.11834,-0.264 0.344518,-0.696 0.502617,-0.96 0.1581,-0.264 0.449981,-0.696 0.648626,-0.96 0.198645,-0.264 0.633075,-0.763191 0.9654,-1.109312 0.332325,-0.346122 0.874228,-0.834018 1.204228,-1.084214 0.33,-0.250195 0.78,-0.559049 1,-0.686341 0.22,-0.127291 0.650005,-0.353341 0.955567,-0.502333 0.305561,-0.148992 0.773561,-0.352889 1.04,-0.453105 0.266438,-0.100216 0.808433,-0.257787 1.204433,-0.350156 0.396,-0.09237 1.129975,-0.208513 1.631055,-0.258095 0.678689,-0.06716 1.15241,-0.06687 1.857353,0.0011 0.520464,0.0502 1.309166,0.179132 1.752673,0.286522 0.443506,0.107389 1.119697,0.324191 1.502647,0.481782 0.382949,0.157591 0.930272,0.414892 1.216272,0.571779 0.286,0.156888 0.748384,0.446333 1.02752,0.643211 0.279136,0.196878 0.72549,0.552452 0.991899,0.790164 0.266409,0.237712 0.698516,0.674478 0.960238,0.970592 0.261723,0.296113 0.66837,0.827396 0.903661,1.180629 0.235292,0.353233 0.557332,0.904334 0.715646,1.22467 0.158315,0.320336 0.373973,0.823327 0.47924,1.117759 0.105268,0.294431 0.262564,0.82333 0.349547,1.17533 0.08698,0.352 0.197322,0.942724 0.245199,1.31272 0.04788,0.369996 0.08705,0.967272 0.08705,1.32728 0,0.360008 -0.03917,0.957283 -0.08705,1.32728 -0.04788,0.369996 -0.158217,0.96072 -0.245199,1.31272 -0.08698,0.352 -0.248046,0.892 -0.357919,1.2 -0.109873,0.308 -0.371739,0.88717 -0.581924,1.287044 -0.210186,0.399874 -0.513126,0.924358 -0.6732,1.165519 -0.160073,0.241161 -0.516867,0.694342 -0.792875,1.007068 -0.276009,0.312726 -0.753833,0.790734 -1.061833,1.062239 -0.308,0.271506 -0.848,0.684247 -1.2,0.917203 -0.352,0.232957 -0.90325,0.555051 -1.224999,0.715765 -0.321749,0.160714 -0.83491,0.382356 -1.140359,0.492537 -0.305448,0.110182 -0.978199,0.290981 -1.495001,0.401776 -0.654265,0.140266 -1.267646,0.210829 -2.019641,0.232337 -0.701768,0.02007 -1.325381,-0.0093 -1.780658,-0.08376 z m 18.860658,0.036 c -0.22,-0.03716 -0.612388,-0.140871 -0.871973,-0.230458 -0.259586,-0.08959 -0.709586,-0.294713 -1,-0.455834 -0.324177,-0.179852 -0.792076,-0.558265 -1.211983,-0.98019 -0.474301,-0.476581 -0.772282,-0.858899 -0.972106,-1.247242 -0.158484,-0.308 -0.372704,-0.812 -0.476045,-1.12 l -0.187893,-0.56 -0.022,-25.52 c -0.01979,-22.961211 -0.0094,-25.582932 0.103985,-26.147651 0.06929,-0.345207 0.199503,-0.824139 0.289356,-1.064293 0.08985,-0.240154 0.341277,-0.702637 0.558719,-1.02774 0.217442,-0.325103 0.637133,-0.812815 0.932646,-1.083804 0.378085,-0.346709 0.774351,-0.606642 1.337296,-0.877208 0.456041,-0.219186 1.040771,-0.430678 1.36,-0.491903 0.438647,-0.08413 1.903541,-0.107401 6.76,-0.107401 5.664347,0 6.252377,0.0123 6.806307,0.142411 0.33347,0.07833 0.87615,0.277969 1.20595,0.443652 0.3298,0.165682 0.82143,0.475489 1.0925,0.688458 0.27108,0.21297 0.67362,0.621362 0.89455,0.907538 0.22093,0.286176 0.50925,0.740285 0.64072,1.009131 0.13147,0.268845 0.31125,0.773569 0.3995,1.121607 0.15898,0.626933 0.16046,0.869337 0.15908,26.16 -0.001,22.001285 -0.0174,25.604552 -0.11755,26.087203 -0.0651,0.313942 -0.28361,0.893265 -0.49727,1.318473 -0.30224,0.601507 -0.51453,0.893398 -1.02578,1.410438 -0.55256,0.558813 -0.76421,0.70985 -1.48134,1.057112 -0.50841,0.246194 -1.07859,0.45396 -1.4533,0.529562 -0.52838,0.10661 -1.4901,0.123076 -6.719995,0.115063 -3.356855,-0.0051 -6.283372,-0.03976 -6.503372,-0.07692 z"
         id="path3" /></g></g></svg>
